<?xml version="1.0" encoding="UTF-8" standalone="no"?><!DOCTYPE svg PUBLIC "-//W3C//DTD SVG 1.1//EN" "http://www.w3.org/Graphics/SVG/1.1/DTD/svg11.dtd"><svg width="100%" height="100%" viewBox="0 0 980 949" version="1.1" xmlns="http://www.w3.org/2000/svg" xmlns:xlink="http://www.w3.org/1999/xlink" xml:space="preserve" xmlns:serif="http://www.serif.com/" style="fill-rule:evenodd;clip-rule:evenodd;stroke-linejoin:round;stroke-miterlimit:2;"><g><path d="M128.318,331.793c0,0 84.887,-318.438 361.677,-318.11c116.802,19.11 285.429,74.849 350.157,322.631l15.587,103.661c0,0 130.151,34.278 109.448,122.889c-20.703,88.611 -57.567,190.632 -57.567,190.632c0,0 24.244,60.635 -152.464,45.698c-47.729,41.198 -175.919,141.557 -265.155,137.234c-89.236,-4.323 -205.892,-57.094 -268.631,-134.453c-52.011,3.302 -147.948,5.528 -167.724,-68.007c-19.776,-73.535 -87.054,-252.691 57.494,-287.274c11.391,-79.016 17.178,-114.901 17.178,-114.901Z" style="fill:#fff;"/><path d="M395.76,36.279l-4.666,69.949c0,0 118.614,42.076 186.635,0c-5.823,-40.289 -8.177,-69.949 -8.177,-69.949c0,0 228.304,45.732 270.6,302.144c-65.949,7.354 -157.369,29.284 -350.151,243.785c-37.647,-23.894 -217.074,-250.65 -361.683,-245.41c23.041,-77.521 66.39,-252.595 267.442,-300.519Zm1.754,176.756c0,0 96.336,-27.004 171.527,-0.992c-9.972,80.394 -16.849,163.324 -16.849,163.324l-139.049,-3.707l-15.629,-158.625Z" style="fill:#00cbff;"/><path d="M870.085,445.225c0,0 113.321,46.597 92.331,136.983c-20.989,90.387 -57.739,173.048 -57.739,173.048c0,0 -45.484,66.401 -140.865,46.604c23.354,-54.875 30.359,-54.875 30.359,-54.875c0,0 75.031,-208.489 75.914,-301.76Z" style="fill:#00cbff;"/><path d="M111.14,445.225c0,0 -111.916,49.169 -92.494,117.639c19.422,68.47 34.375,187.236 62.099,205.554c27.724,18.317 60.416,51.554 139.349,37.128c-45.334,-75.607 -115.893,-170.904 -108.954,-360.321Z" style="fill:#00cbff;"/><g><path d="M438.681,2.284c-84.15,12.9 -167.34,61.24 -226.27,131.72c-48.91,58.16 -81.27,121.13 -102.45,199.51c-8.67,31.77 -10.59,41.59 -14.64,73.75l-3.08,26.19l-21.18,12.52c-48.72,29.08 -71.25,65.47 -71.06,113.81c0.19,19.64 0.77,22.15 22.72,102.06c13.68,49.11 25.04,86.85 28.7,94.36c9.05,18.29 34.28,43.33 53.34,52.77c23.3,11.36 31.39,12.9 75.1,14.06l39.48,1.15l20.22,19.45c133.45,128.64 311.2,140.38 455.43,30.23c6.35,-4.81 21.18,-17.91 32.74,-29.27l21.18,-20.61l45.25,-0.96c51.22,-0.96 58.54,-2.31 83.38,-15.21c10.79,-5.78 19.83,-12.32 29.46,-22.15c21.38,-21.18 25.61,-31.39 51.23,-124.79l21.76,-78.95l0,-23.11c0,-26.77 -3.85,-41.02 -16.75,-63.36c-11.35,-19.25 -25.61,-31.96 -58.34,-51.99l-28.7,-17.52l-4.23,-29.85c-13.29,-94.36 -54.5,-189.3 -112.08,-258.05c-57.77,-69.13 -135.19,-117.28 -213.37,-132.88c-26.96,-5.38 -81.84,-6.92 -107.84,-2.88Zm88.58,36.59c10.59,1.54 19.45,3.27 19.83,3.66c0.96,0.96 6.35,51.8 5.58,52.57c-0.19,0.38 -7.13,2.31 -15.41,4.43c-23.3,5.97 -51.03,8.09 -73.95,5.78c-17.14,-1.73 -47.76,-8.09 -50.07,-10.4c-0.38,-0.58 0.38,-12.13 1.73,-26c2.7,-28.89 0.38,-26.19 26.77,-30.04c22.94,-3.46 62.99,-3.46 85.52,0Zm-149.62,43.52c-3.66,36.2 -2.7,37.94 24.84,46.6c47.57,15.02 98.02,16.56 146.36,4.24c23.11,-5.78 34.28,-10.98 38.51,-17.33c3.08,-4.62 3.08,-7.13 0.77,-32.93c-1.35,-15.41 -1.93,-28.31 -1.35,-28.89c1.73,-1.73 38.71,15.21 55.85,25.61c67.79,41.02 124.02,108.22 158.29,189.3c5.39,12.52 18.29,49.11 18.29,51.61c0,0.77 -5.39,1.54 -12.13,1.93c-34.86,1.35 -80.49,23.69 -138.84,67.59c-46.41,35.05 -109.58,92.63 -156.95,143.08l-27.73,29.66l-55.08,-55.08c-87.81,-88 -148.66,-136.92 -205.28,-165.22c-20.41,-10.21 -47.76,-19.64 -56.62,-19.64c-3.08,0 -8.09,-0.58 -11.17,-1.16l-5.78,-1.15l3.47,-10.98c10.78,-34.66 33.51,-82.61 53.15,-112.27c33.12,-49.68 75.87,-91.28 121.51,-118.62c20.03,-11.94 51.22,-25.61 51.99,-22.92c0.21,1.35 -0.76,13.29 -2.1,26.57Zm-201.24,278.85c15.41,4.04 38.13,14.64 59.31,27.73c15.98,10.01 59.7,42.75 72.21,54.11c9.24,8.47 9.44,8.67 3.27,6.74c-3.47,-1.15 -12.9,-1.93 -21.18,-1.54c-12.71,0.58 -17.33,1.93 -29.85,8.09c-30.81,15.21 -53.91,47.75 -60.46,85.11c-3.27,19.45 -3.08,22.72 4.24,88.58c5.97,53.92 8.67,62.01 24.84,74.33c14.44,10.98 19.26,11.75 76.26,10.98l51.03,-0.58l9.05,-5.2c4.81,-3.08 12.13,-9.05 15.79,-13.48c11.17,-13.09 12.71,-21.18 12.71,-71.06c0,-59.7 -4.04,-81.46 -21.37,-116.31l-7.7,-15.41l27.15,26.96c15.02,14.83 38.13,38.9 51.61,53.34c26.19,28.5 31,31.77 44.87,29.46c6.35,-1.16 10.01,-3.85 20.6,-15.02c7.13,-7.7 31.39,-32.54 53.92,-55.27c37.36,-37.74 40.44,-40.44 34.28,-29.85c-8.86,15.02 -17.33,38.51 -21.57,58.93c-2.89,13.87 -3.08,23.11 -1.93,65.09c1.35,55.27 2.12,58.93 16.56,73.37c14.83,14.83 17.14,15.41 76.07,15.41c50.65,0 52.19,-0.19 61.82,-4.62c11.17,-5.2 22.15,-15.6 26.77,-25.61c3.66,-7.51 12.13,-77.42 13.87,-113.23c1.73,-39.67 -9.44,-70.87 -34.86,-96.29c-18.87,-18.87 -34.28,-26.38 -56.04,-27.54c-9.24,-0.58 -18.68,0 -22.34,1.35c-3.47,1.16 -6.55,1.93 -6.93,1.54c-0.77,-0.96 39.09,-32.93 58.16,-46.6c38.32,-27.35 74.72,-44.49 99.17,-46.6c12.13,-0.96 13.09,-0.77 18.87,4.43c5.39,4.81 6.55,7.9 9.05,22.53c5.58,33.12 7.32,61.24 6.16,103.41c-1.93,71.64 -14.06,129.02 -40.05,190.26c-12.13,28.69 -35.24,70.29 -51.42,91.86c-15.02,20.41 -45.83,52.76 -64.9,68.17c-95.9,78.38 -219.92,95.13 -327.95,44.48c-42.94,-20.22 -87.24,-54.69 -118.62,-92.24c-29.27,-35.05 -63.93,-96.67 -79.15,-140.77c-28.5,-82.42 -36.59,-175.24 -22.92,-262.86c4.82,-31.19 9.63,-34.27 41.6,-26.18Zm721.56,119.97c9.05,5.58 20.6,14.06 25.61,19.06c15.98,15.98 24.07,38.32 22.15,61.24c-1.54,17.53 -42.17,165.61 -49.68,180.83c-10.59,21.76 -30.81,37.36 -55.27,42.56c-11.55,2.31 -46.6,2.89 -46.6,0.58c0,-7.13 10.78,-37.17 17.72,-49.49c18.49,-32.55 39.48,-86.66 49.49,-127.1c8.67,-35.43 15.6,-84.35 15.6,-110.92c0,-14.63 1.54,-26.77 3.27,-26.77c0.58,0 8.47,4.42 17.71,10.01Zm-806.1,20.8c5.01,95.71 34.09,187.95 84.15,265.75l11.75,18.29l-18.68,0.58c-10.21,0.19 -23.3,-0.39 -28.89,-1.54c-23.69,-5.01 -44.87,-20.99 -55.46,-42.17c-5.39,-10.4 -46.03,-156.37 -49.3,-176.4c-3.66,-22.34 3.85,-46.6 19.64,-63.74c6.93,-7.7 30.81,-25.42 34.47,-25.8c0.58,-0.01 1.74,11.16 2.32,25.03Zm217.99,-14.64c5.58,2.5 13.29,8.47 17.91,13.67c8.28,9.24 18.49,28.12 20.8,38.13l1.16,5.39l-6.36,-3.85c-3.66,-2.31 -9.05,-4.04 -11.94,-4.04c-38.13,0 -59.31,79.34 -35.24,132.1l4.81,10.4l-25.61,0c-19.83,0 -26.19,-0.58 -27.92,-2.7c-2.7,-3.08 -11.55,-74.91 -13.09,-105.34c-0.77,-15.79 -0.38,-22.72 2.31,-31.58c4.62,-15.98 11.36,-28.69 20.8,-38.9c15.97,-17.32 33.88,-21.95 52.37,-13.28Zm377.25,-1.92c12.32,3.85 21.38,11.17 30.04,24.65c16.18,24.84 19.07,45.64 13.09,93.97c-1.73,14.25 -4.24,35.82 -5.58,47.57c-1.16,11.94 -3.27,23.3 -4.62,25.04c-2.31,2.89 -6.35,3.47 -29.66,4.04l-27.15,0.77l5.97,-12.71c16.56,-35.43 13.1,-88.77 -7.32,-115.54c-12.32,-15.98 -25.42,-20.22 -39.48,-12.71l-7.32,3.85l4.04,-10.21c8.86,-22.53 21.95,-39.09 36.78,-46.41c11.37,-5.78 18.31,-6.17 31.21,-2.31Z" style="fill-rule:nonzero;"/><path d="M451.001,180.604c-19.06,2.31 -49.11,10.01 -62.2,15.98c-8.47,3.85 -10.78,5.78 -11.94,10.98c-1.15,4.24 1.16,31.77 7.51,87.23c5.01,44.68 9.05,82.42 9.05,84.15c0.19,1.73 2.5,5.39 5.2,8.28l5.2,5.01l157.72,0l5.2,-5.39c5.2,-5.2 5.2,-5.58 14.63,-91.09c9.24,-83.19 9.44,-86.08 5.97,-91.09c-5.78,-9.05 -34.47,-18.68 -69.91,-23.3c-22.9,-3.07 -43.7,-3.26 -66.43,-0.76Zm73.38,37.75c7.7,1.54 17.33,3.85 21.18,5.01c6.16,2.12 6.93,3.08 6.55,8.09c-0.96,10.98 -12.13,113.62 -13.29,119.97l-0.96,6.16l-55.27,-0.39l-55.27,-0.58l-7.32,-65.28c-4.04,-35.82 -6.93,-65.47 -6.55,-65.86c0.39,-0.38 7.7,-2.5 16.37,-4.81c30.04,-7.51 64.13,-8.47 94.56,-2.31Z" style="fill-rule:nonzero;"/><path d="M437.331,700.554c-2.12,1.16 -4.81,5.01 -6.36,8.67c-4.24,9.82 -0.58,15.98 23.69,39.67c28.69,28.31 29.66,28.12 61.81,-4.81c18.1,-18.87 19.64,-20.99 19.64,-27.92c0,-5.58 -1.35,-8.86 -5.01,-12.71l-5.2,-5.01l-42.56,0c-26.56,-0.01 -43.89,0.95 -46.01,2.11Z" style="fill-rule:nonzero;"/><path d="M383.411,808.394c-9.24,5.39 -9.82,21.95 -1.16,29.08c3.85,3.27 11.55,3.47 100.33,3.47l96.29,0l5.58,-5.58c7.32,-7.32 7.51,-16.75 0.77,-24.07l-4.62,-5.01l-96.87,0c-65.27,0.18 -98.01,0.76 -100.32,2.11Z" style="fill-rule:nonzero;"/></g></g></svg>